<svg width="47" height="56" xmlns="http://www.w3.org/2000/svg" xmlns:xlink="http://www.w3.org/1999/xlink" xmlns:svgjs="http://svgjs.com/svgjs" viewBox="374 80 47 56"><svg width="33" height="12" xmlns="http://www.w3.org/2000/svg" xmlns:xlink="http://www.w3.org/1999/xlink" xmlns:svgjs="http://svgjs.com/svgjs" viewBox="0 0.544 33 10.911" fill="#ffb619" x="381" y="124"><svg xmlns="http://www.w3.org/2000/svg" xmlns:xlink="http://www.w3.org/1999/xlink" width="33" height="12" viewBox="1.673 1.865 30.654 10.136"><path paint-order="stroke fill markers" fill-rule="evenodd" d="M32.018 8.906l-4.573.007c-.082-.19-.238-.719-.24-1.98-.001-1.26.153-1.79.234-1.98l4.571-.008a.312.312 0 00.266-.15.303.303 0 00.005-.302 5.14 5.14 0 00-4.502-2.628 5.12 5.12 0 00-4.754 3.19H10.968a5.137 5.137 0 00-4.764-3.19A5.138 5.138 0 001.71 4.509a.302.302 0 00.005.302.31.31 0 00.265.15l4.574-.008c.081.19.236.72.238 1.98.002 1.261-.152 1.79-.233 1.981L1.99 8.92a.31.31 0 00-.266.15.3.3 0 00-.004.302A5.138 5.138 0 006.212 12h.008a5.123 5.123 0 004.753-3.191h12.058A5.133 5.133 0 0027.788 12h.008a5.139 5.139 0 004.493-2.642.303.303 0 00-.005-.303.31.31 0 00-.266-.149zm0 0"/></svg></svg><svg width="47" height="51" xmlns="http://www.w3.org/2000/svg" xmlns:xlink="http://www.w3.org/1999/xlink" xmlns:svgjs="http://svgjs.com/svgjs" viewBox="0.013 0 46.974 51" fill="#1c3e9b" x="374" y="80"><svg xmlns="http://www.w3.org/2000/svg" width="47" height="51" viewBox="1.999 1.999 46 49.943"><path paint-order="stroke fill markers" fill-rule="evenodd" d="M25 31.61c3.694 0 12.383-4.36 12.383-14.806 0-1.457-.037-2.865-.159-4.194-.201-2.617-.748-4.937-2.11-6.715C33.368 3.477 30.313 2 25 2c-5.311 0-8.367 1.477-10.114 3.895-1.362 1.778-1.91 4.098-2.11 6.716-.122 1.33-.159 2.738-.159 4.195 0 10.445 8.688 14.804 12.383 14.804zm4.04-24.188l-.902 2.234c-2.33-.645-3.95-.645-6.28 0l-.902-2.234c2.913-.864 5.171-.864 8.084 0zM14.458 14.54c.143.306.75 1.482 1.687 1.593 1.08.126 2.87-3.745 8.854-3.754 5.986.009 7.776 3.88 8.854 3.754.938-.111 1.545-1.287 1.688-1.593.028.75.04 1.509.04 2.266 0 5.105-2.3 8.269-4.23 10.024-2.432 2.211-5.13 3.013-6.351 3.013s-3.92-.802-6.351-3.013c-1.93-1.755-4.23-4.919-4.23-10.024 0-.757.01-1.516.04-2.266zm33.53 32.254c-.631-3.853-1.933-8.817-4.544-10.581-1.783-1.205-8.002-4.463-10.659-5.854l-.045-.023a.882.882 0 00-.944.08c-1.391 1.072-2.915 1.793-4.53 2.146a.86.86 0 00-.622.528l-1.645 4.248-1.644-4.248a.86.86 0 00-.623-.528c-1.614-.353-3.138-1.074-4.529-2.146a.883.883 0 00-.946-.08c-2.624 1.375-8.92 4.699-10.695 5.872-3.005 1.984-4.32 9.166-4.552 10.587a.843.843 0 00.038.419c.065.176 1.059 2.7 6.03 4.729a2.468 2.468 0 011.096-.774 2.45 2.45 0 01-1.292-1.038 2.373 2.373 0 01-.043-2.38c1.274-2.287 3.714-3.71 6.372-3.714 2.471 0 4.712 1.205 6.043 3.162h9.485a7.294 7.294 0 016.03-3.161h.003c2.656 0 5.099 1.414 6.378 3.693.414.74.4 1.65-.038 2.381a2.448 2.448 0 01-1.29 1.04 2.47 2.47 0 011.115.785c4.957-2.028 5.95-4.547 6.013-4.723a.843.843 0 00.039-.42zm0 0"/></svg></svg></svg>